# xmcd
#
# Track frame offsets: 
#        150
#        10598
#        24766
#        36663
#        48748
#        65076
#        79140
#        91400
#        103799
#        117515
#        131767
#        146416
#        156844
#        170866
#        182164
#        194723
#        204983
#        219277
#        231523
#        242369
#        255931
#        268476
#
# Disc length: 3754 seconds
#
# Revision: 0
# Processed by: cddbd v1.5.2PL0 Copyright (c) Steve Scherf et al.
# Submitted via: ExactAudioCopy v0.99pb3
#
DISCID=470ea816
DTITLE=Carl Smith - Happy Birthday My Darlin' 
DYEAR=1975
DGENRE=Country
TTITLE0=Did We Have To Come This Far To Say Goodbye
TTITLE1=Dreaming Again
TTITLE2=Drinking Champagne
TTITLE3=The Girl I Love
TTITLE4=Give Me Liberty Or Give Me All Your Love 
TTITLE5=Happy Birthday My Darlin
TTITLE6=I Can't Get That Last Memory Down
TTITLE7=I Can't Get You Out Of My Mind
TTITLE8=It's Teardrop Time
TTITLE9=Just Because I'm Still In Love With You
TTITLE10=Lost Highway
TTITLE11=May You Never Be Alone
TTITLE12=Not Once But A Hundred Times
TTITLE13=A Pair Of Wings For Me
TTITLE14=Remembered By Someone (Remembered By Me)
TTITLE15=She Is
TTITLE16=Silver-Tongued Cowboy
TTITLE17=There's Nobody Home On The Range Anymore
TTITLE18=This Kinda Love Ain't Meant For Sunday School
TTITLE19=One Thing Leads To Another
TTITLE20=Till I Stop Needing You
TTITLE21=The Way I Lose My Mind
EXTD=
EXTT0=
EXTT1=
EXTT2=
EXTT3=
EXTT4=
EXTT5=
EXTT6=
EXTT7=
EXTT8=
EXTT9=
EXTT10=
EXTT11=
EXTT12=
EXTT13=
EXTT14=
EXTT15=
EXTT16=
EXTT17=
EXTT18=
EXTT19=
EXTT20=
EXTT21=
PLAYORDER=
